<?xml version="1.0" encoding="utf-8"?>
<!-- Generator: Adobe Illustrator 24.0.1, SVG Export Plug-In . SVG Version: 6.00 Build 0)  -->
<svg version="1.1" id="Calque_1" xmlns="http://www.w3.org/2000/svg" xmlns:xlink="http://www.w3.org/1999/xlink" x="0px" y="0px"
	 viewBox="0 0 346.9 177.35" style="enable-background:new 0 0 346.9 177.35;" xml:space="preserve">
<style type="text/css">
	.st0{fill:#FFFFFF;}
	.st1{fill:#F39400;}
</style>
<polygon class="st0" points="3.05,89.55 173.57,5.3 344.09,89.49 173.57,173.68 "/>
<path class="st1" d="M315.62,75.44v3.22h-14.33v-7.28c0-1.14-0.02-2.14-0.05-3.03l-5.43-2.68c-0.17,1.39-0.25,3.24-0.25,5.71v1.67
	c0,5.14,0.84,5.73,6.57,9.91c10.82,7.81,13.2,10.72,13.46,20.61l28.5-14.07L315.62,75.44z M234.16,143.77l-5.29-29.3v31.91
	L234.16,143.77z M199.52,160.88l-5.49-30.4v33.11L199.52,160.88z M163.21,163.42c1.9,0,2.68-1.45,2.68-8.93v-47.46
	c0-7.48-0.78-8.93-2.68-8.93c-1.9,0-2.68,1.45-2.68,8.93v47.46C160.53,161.96,161.31,163.42,163.21,163.42 M74.02,124.54
	l-5.83-56.99v54.11L74.02,124.54z M83.31,49.87l-7.38,3.64l3.48,30.88L83.31,49.87z M90.52,132.68V67.55l-6.24,62.06L90.52,132.68z
	 M54.46,64.11L3.05,89.5l51.41,25.38V64.11z M281.89,58.78L173.57,5.3l-69.19,34.16v94.6H93.32l13.83,6.83V69.24h13.4v78.26
	l9.38,4.63v-69.5h-6.7v-13.4h26.8v13.4h-6.7v76.11l3.85,1.9c-0.03-0.9-0.05-1.83-0.05-2.83v-54.16c0-14.74,3.57-18.98,16.08-18.98
	c12.51,0,16.08,4.24,16.08,18.98v54.16c0,6.96-0.82,11.56-2.98,14.5l5.65-2.79v-84.3h11.84l8.26,47.91V85.24h12.06v68.42l2.68-1.32
	V69.24h11.84l8.26,47.91V69.24h12.06v67.21l2.68-1.32V69.24h26.8v13.4h-13.4v22.67h13.4v13.4h-13.4v9.8l16.43-8.11
	c-0.17-1.81-0.26-3.8-0.26-6.04V102.3h14.33v8.48c0,0.98,0.01,1.86,0.04,2.66l5.69-2.81v-3.91c0-5.73-0.6-5.97-6.93-10.51
	c-10.27-7.17-13.14-10.03-13.14-22.57v-5.85C281.23,64.23,281.43,61.28,281.89,58.78"/>
<path class="st0" d="M182.67,77.58c8.04,0,10.34-2.73,10.34-12.21V18.68h-8.62v44.54c0,4.81-0.5,5.75-1.72,5.75
	c-1.22,0-1.73-0.93-1.73-5.75V18.68h-8.62v46.69C172.33,74.86,174.63,77.58,182.67,77.58 M170.6,27.3v-8.62h-17.24v8.62h4.31v49.92
	h8.62V27.3H170.6z"/>
</svg>
